<svg viewBox="0 0 15 20" fill="none" xmlns="http://www.w3.org/2000/svg">
  <path d="M14.07 2.56531C14.07 0.545309 12.15 -0.0646912 10.54 0.00530878V0.185309C11.5 0.255309 12.24 0.645309 12.24 1.29531C12.24 1.74531 11.92 2.30531 10.96 2.30531C10.2 2.30531 8.94 1.85531 7.76 1.46531C6.46 1.01531 5.22 0.595309 4.19 0.595309C2.17 0.595309 0.64 2.09531 0.64 3.95531C0.64 5.45531 1.8 5.97531 2.27 6.16531L2.3 6.09531C2 5.89531 1.81 5.67531 1.81 5.03531C1.81 4.49531 2.2 3.77531 3.24 3.77531C4.18 3.77531 5.41 4.19531 7.04 4.65531C8.44 5.04531 9.95 5.41531 10.79 5.52531V8.80531L9.21 10.1053L10.79 11.4653V15.9553C9.98 16.4153 9.04 16.5653 8.23 16.5653C6.73 16.5653 5.35 16.1453 4.21 14.8853L8.47 12.8153V5.72531L3.27 8.04531C3.81 6.66531 4.82 5.63531 5.93 4.96531L5.9 4.88531C2.81 5.72531 0 8.55531 0 12.0553C0 16.2453 3.35 19.3553 7.22 19.3553C11.41 19.3553 13.87 16.0753 13.83 12.6053H13.75C13.14 13.9353 12.12 15.1953 10.97 15.8553V11.4753L12.62 10.1453L10.97 8.81531V5.53531C12.5 5.53531 14.08 4.52531 14.08 2.57531M5.3 14.1253L4.09 14.7353C3.35 13.7753 2.86 12.4153 2.86 10.6653C2.86 9.94531 2.94 8.96531 3.18 8.27531L5.32 7.31531L5.29 14.1153L5.3 14.1253Z" fill="currentColor"/>
</svg>
